<svg width="250" height="250" viewBox="0 0 250 250" fill="none" xmlns="http://www.w3.org/2000/svg">
<g clip-path="url(#clip0_2372_1043)">
<path fill-rule="evenodd" clip-rule="evenodd" d="M110.13 225.392H113.224V236.238H111.168V227.325H108.936L110.13 225.392ZM125.002 0C194.036 0 250 55.9636 250 125.002C250 194.036 194.036 250 125.002 250C55.9636 250 0 194.036 0 125.002C0 55.9636 55.9636 0 125.002 0ZM125.002 3.26014C192.236 3.26014 246.74 57.7638 246.74 125.002C246.74 192.236 192.236 246.74 125.002 246.74C57.7672 246.74 3.26014 192.236 3.26014 125.002C3.26014 57.7638 57.7672 3.26014 125.002 3.26014ZM125.002 5.8669C190.797 5.8669 244.133 59.2033 244.133 125.002C244.133 190.797 190.797 244.133 125.002 244.133C59.2033 244.133 5.8669 190.797 5.8669 125.002C5.8669 59.2033 59.2033 5.8669 125.002 5.8669ZM125.002 7.38467C189.956 7.38467 242.615 60.0438 242.615 125.002C242.615 189.956 189.956 242.615 125.002 242.615C60.0438 242.615 7.38467 189.956 7.38467 125.002C7.38467 60.0438 60.0438 7.38467 125.002 7.38467ZM125.002 26.983C179.134 26.983 223.017 70.8656 223.017 125.002C223.017 179.131 179.134 223.017 125.002 223.017C70.869 223.017 26.983 179.131 26.983 125.002C26.983 70.8656 70.869 26.983 125.002 26.983ZM125.002 28.5416C178.273 28.5416 221.458 71.73 221.458 125.002C221.458 178.273 178.273 221.458 125.002 221.458C71.73 221.458 28.5416 178.273 28.5416 125.002C28.5416 71.73 71.73 28.5416 125.002 28.5416ZM123.943 49.0043C126.816 48.1331 130.913 52.1827 128.357 56.3107C126.257 59.6967 120.976 58.7609 120.295 54.4424C119.826 51.4749 121.398 49.7802 123.943 49.0043ZM87.8674 201.442C96.8957 195.854 93.3157 182.081 81.895 182.674C76.8108 182.939 72.1724 188.326 73.03 193.842C73.4996 196.841 75.0105 199.59 77.2532 200.873C78.1958 201.418 78.3898 201.724 79.2712 202.102C79.4345 202.17 79.4856 202.197 79.4924 202.2C79.5128 202.207 79.5571 202.221 79.6523 202.251C81.0034 202.68 83.7292 202.987 85.1925 202.571C85.4478 202.496 85.7983 202.405 86.2305 202.296C86.6899 202.18 86.4313 202.275 86.7512 202.126L87.8674 201.442ZM116.501 195.503C117.92 190.576 115.647 185.961 111.4 183.637L110.549 183.228C110.304 183.143 109.773 183.126 109.576 183.021C109.487 182.973 110.11 182.902 109.045 182.755C106.322 182.374 103.995 182.677 101.626 184.089C96.8991 186.907 95.5957 193.577 98.4577 198.049L100.169 200.148L104.144 202.35C109.375 203.96 114.986 200.768 116.501 195.503ZM152.927 194.207C153.203 192.345 153.067 191.277 152.621 189.755C151.896 187.278 151.168 186.563 149.739 185.144C149.272 184.681 148.973 184.416 148.296 184.042C147.414 183.545 145.914 182.837 144.695 182.708C134.319 181.632 130.042 192.743 135.388 199.144L136.848 200.604L136.943 200.693C137.882 201.533 140.36 202.551 141.585 202.704C144.651 203.078 147.462 202.04 149.351 200.519C151.062 199.144 152.526 196.915 152.927 194.207ZM164.365 182.834C162.599 183.718 160.758 184.076 158.903 186.788C152.328 196.402 163.98 207.131 172.611 201.026C177.276 197.729 178.532 191.726 175.17 186.846C174.367 185.678 173.866 185.246 172.723 184.355C171.702 183.555 170.545 183.126 169.187 182.796C168.541 182.64 164.865 182.582 164.365 182.834ZM157.586 150.702C157.433 159.788 157.685 169.609 157.603 178.828L172.958 178.777L172.944 133.901C171.981 134.197 173.067 133.649 171.859 134.755C169.616 136.8 164.341 142.718 161.717 145.372C161.139 145.954 160.506 146.662 159.87 147.343C157.94 149.405 157.613 149.157 157.586 150.702ZM145.723 161.418L133.727 177.423C133.356 177.896 133.111 178.09 132.975 178.801L148.017 178.77C148.071 175.425 148.04 172.076 148.04 168.731C148.04 167.829 148.323 159.73 147.775 158.992C147.111 159.277 146.135 160.826 145.723 161.418ZM101.272 160.169L101.32 178.774C105.482 178.94 112.189 178.814 116.399 178.791C116.212 178.039 116.123 178.151 115.534 177.327C115.201 176.854 114.881 176.429 114.599 176.058L102.613 160.019C102.184 159.434 102.096 159.199 101.555 158.998C101.214 159.458 101.282 159.42 101.272 160.169ZM91.7264 178.801L91.7537 151.263C91.7537 149.157 91.5529 149.565 90.4401 148.374L82.9805 140.547C81.946 139.482 77.4778 134.238 76.3888 133.88L76.382 176.739L76.3956 178.828L91.7264 178.801ZM164.334 104.566H91.182C86.5776 104.566 81.051 104.056 77.2872 106.254C76.2016 106.891 75.3338 108.024 74.8064 109.086C72.2983 114.149 75.9634 121.224 79.3801 125.233L94.2515 141.646L94.8641 142.31L103.596 151.587C104.444 152.488 105.342 153.417 106.172 154.292C109.579 157.879 117.416 165.553 121.044 168.166L121.48 168.466L121.793 168.704C123.031 169.664 124.651 170.477 126.492 170.232L126.302 170.096C127.506 169.915 126.819 170.001 127.813 169.361L128.044 169.231L131.137 166.829L142.585 155.357C145.621 152.158 148.895 148.149 151.518 145.362L155.041 141.231L155.126 141.136C155.99 140.152 156.701 139.329 157.491 138.4L169.16 124.069C169.912 123.028 170.736 122.048 171.44 121.061C172.961 118.937 174.258 117.137 175.01 114.251C175.925 110.739 174.864 107.782 172.988 106.213C170.841 104.406 167.717 104.566 164.334 104.566ZM110.025 129.878C108.715 128.452 107.649 127.387 107.129 125.471C105.655 119.989 113.115 121.306 117.202 121.306H139.039C139.495 121.306 140.384 121.286 140.799 121.377L141.051 121.459C142.201 121.925 142.63 123.916 142.177 125.06C141.524 126.717 138.961 129.81 137.624 131.478L136.647 132.693L136.569 132.795L136.405 132.985C136.266 133.149 136.103 133.312 135.97 133.452C134.67 134.779 133.843 135.905 132.557 137.321L129.045 141.074C128.408 141.748 127.996 142.204 127.18 142.858C125.053 144.566 124.951 145.393 120.598 141.139C118.1 138.696 115.97 136.382 113.475 133.7C113.156 133.353 112.914 133.101 112.604 132.757L112.169 132.26L110.025 129.878ZM130.556 73.8773C117.508 71.0119 105.73 77.8861 100.939 88.7794C99.9244 91.0833 98.4339 96.0858 98.7028 99.4038L150.579 99.3902C150.736 95.3745 149.558 91.284 148.282 88.5276C144.658 80.6835 139.135 76.7393 131.835 74.221C131.464 74.0951 130.913 73.9556 130.556 73.8773ZM106.145 45.2371C105.614 48.3236 108.088 51.2605 109.892 53.3942L118.965 64.3419C120.2 65.7236 123.702 70.3313 125.672 69.484C126.87 68.9667 132.431 62.1946 133.737 60.4522L134.136 59.9417C136.143 57.3724 142.511 49.1744 143.092 46.8127C143.504 45.1248 143.109 43.2292 141.503 42.729C140.54 42.4329 117.392 42.6133 115.565 42.6133C113.612 42.6133 109.385 42.3172 107.908 42.9536C106.894 43.3892 106.353 44.0426 106.145 45.2371ZM79.8667 227.417C82.2659 227.781 84.4745 228.721 86.4925 230.242C88.1464 231.208 89.8548 231.647 91.6822 230.926C94.6293 229.636 95.4188 227.332 94.8845 224.668C93.901 221.72 91.621 220.982 89.1435 221.026C87.1459 221.258 85.1245 221.812 83.0758 222.684C82.2183 223.02 81.3947 223.15 80.6018 223.075C79.1623 222.874 78.3796 222.197 77.8964 221.302C77.2532 222.462 77.6752 223.425 78.822 224.252C77.1749 224.766 75.3406 224.753 73.0912 223.582C71.2263 222.381 70.7397 220.785 70.8758 219.012C71.2297 217.439 72.0941 216.35 73.697 215.969C75.3202 215.643 76.2935 216.194 76.6202 217.627C76.4705 218.716 75.9294 219.308 74.9935 219.406C73.6459 219.372 73.4077 218.552 73.3226 217.623C72.363 218.423 72.1622 219.379 72.7169 220.495C73.2716 221.404 74.0849 221.945 75.4734 221.669C76.5589 221.377 77.2736 220.543 77.6139 219.161C79.9212 221.336 82.2251 220.859 84.5289 219.182C82.5484 218.91 80.6494 218.334 79.0398 216.68C77.6377 215.135 76.1234 214.662 74.575 214.489C73.4111 214.598 72.2575 215.108 71.3284 215.939C71.4067 215.381 71.4067 214.765 71.3182 214.094C70.9881 212.158 69.729 210.926 68.0445 210.007C65.6997 209.068 63.7532 207.666 62.198 205.797C61.9121 208.789 63.1338 210.78 66.1796 211.562C64.655 212.148 63.8315 213.237 64.0322 215.061C64.3623 216.095 65.0327 216.745 66.0366 217.017C67.5714 217.239 68.1534 216.483 68.4698 215.452C67.3264 215.796 66.3531 215.639 66.377 214.271C66.4961 213.454 66.8398 213.237 67.2175 213.104C68.8782 212.73 69.7494 213.897 69.6779 215.527C69.5929 217.344 68.6706 218.3 67.3672 218.865C65.5228 219.325 64.199 218.75 63.2291 217.473C61.9938 216.18 61.7284 214.605 61.6024 212.985C62.9126 213.414 63.7021 213.097 63.9744 212.028C62.1197 212.076 61.1668 210.773 60.8265 208.547C60.4318 205.94 59.4449 203.613 57.1614 201.891C55.3238 200.564 53.561 200.111 51.856 200.499C50.0558 201.009 48.9498 202.098 48.1773 203.599C47.6771 205.073 47.7723 206.669 48.3985 207.962C49.348 209.197 50.539 210.249 52.5843 210.65C54.8337 211.171 56.3107 212.498 57.5664 214.05C57.8114 211.212 57.0253 208.993 53.9693 208.142C54.9732 207.138 55.3204 206.094 55.0073 205.011C54.5274 203.684 53.6426 203.266 52.5775 203.262C51.3354 203.364 50.6207 204.035 50.4335 205.27C51.2707 204.858 52.0977 204.64 52.8259 205.777C53.2241 206.624 52.9961 207.397 52.1419 208.088C50.75 208.551 49.7734 208.003 49.2118 206.444C48.7082 204.875 49.1914 203.572 50.3553 202.456C51.8016 201.418 53.4214 201.009 55.4122 201.986C57.58 203.303 58.5397 204.868 58.9514 206.543C57.6515 205.988 56.6101 206.128 55.9465 207.278C56.964 207.23 57.9475 207.55 58.8664 208.676C59.3394 209.316 59.6559 210.089 59.8124 210.994C60.1255 213.199 60.6972 215.214 61.531 217.045C62.7765 219.185 64.5869 220.757 67.6191 220.073C68.4835 219.76 69.2355 219.342 69.8345 218.797C69.6983 219.58 69.7324 220.407 69.9808 221.309C70.5287 222.969 71.8287 224.242 73.9148 225.127C76.5692 226.192 79.0704 225.828 81.507 224.821C83.5897 223.956 85.1959 224.099 86.1148 225.712C86.8873 224.926 86.7512 224.086 85.7064 223.187C87.1561 222.459 88.6433 221.867 90.389 222.258C91.9817 222.425 93.1591 223.262 93.7206 225.079C93.9112 226.485 93.5709 227.768 92.0599 228.778C90.6987 229.684 89.2524 229.544 88.7113 227.931C88.633 227.54 88.6399 227.131 89.2762 226.604C90.4367 225.879 91.0731 226.631 91.3725 227.785C92.0906 226.982 92.4343 226.093 91.4508 224.892C90.6987 224.174 89.7935 223.939 88.7385 224.191C87.0744 224.967 86.5674 226.233 86.8566 227.839C84.6106 225.637 82.2761 225.62 79.8667 227.417ZM170.137 227.417C167.738 227.781 165.525 228.721 163.507 230.242C161.854 231.208 160.145 231.647 158.321 230.926C155.371 229.636 154.585 227.332 155.115 224.668C156.099 221.72 158.382 220.982 160.86 221.026C162.854 221.258 164.876 221.812 166.924 222.684C167.782 223.02 168.605 223.15 169.398 223.075C170.838 222.874 171.62 222.197 172.107 221.302C172.747 222.462 172.328 223.425 171.178 224.252C172.825 224.766 174.663 224.753 176.909 223.582C178.777 222.381 179.264 220.785 179.124 219.012C178.77 217.439 177.909 216.35 176.303 215.969C174.68 215.643 173.706 216.194 173.383 217.627C173.53 218.716 174.074 219.308 175.006 219.406C176.354 219.372 176.596 218.552 176.677 217.623C177.637 218.423 177.841 219.379 177.287 220.495C176.732 221.404 175.918 221.945 174.53 221.669C173.444 221.377 172.73 220.543 172.389 219.161C170.079 221.336 167.775 220.859 165.474 219.182C167.452 218.91 169.351 218.334 170.96 216.68C172.362 215.135 173.88 214.662 175.425 214.489C176.592 214.598 177.746 215.108 178.672 215.939C178.597 215.381 178.597 214.765 178.685 214.094C179.012 212.158 180.271 210.926 181.956 210.007C184.3 209.068 186.25 207.666 187.802 205.797C188.091 208.789 186.87 210.78 183.824 211.562C185.345 212.148 186.169 213.237 185.968 215.061C185.638 216.095 184.971 216.745 183.967 217.017C182.432 217.239 181.847 216.483 181.53 215.452C182.674 215.796 183.647 215.639 183.626 214.271C183.504 213.454 183.16 213.237 182.782 213.104C181.125 212.73 180.254 213.897 180.325 215.527C180.407 217.344 181.329 218.3 182.633 218.865C184.477 219.325 185.804 218.75 186.771 217.473C188.006 216.18 188.272 214.605 188.398 212.985C187.087 213.414 186.298 213.097 186.029 212.028C187.88 212.076 188.837 210.773 189.173 208.547C189.572 205.94 190.559 203.613 192.839 201.891C194.676 200.564 196.439 200.111 198.144 200.499C199.944 201.009 201.054 202.098 201.823 203.599C202.326 205.073 202.228 206.669 201.601 207.962C200.652 209.197 199.464 210.249 197.416 210.65C195.166 211.171 193.693 212.498 192.434 214.05C192.189 211.212 192.978 208.993 196.031 208.142C195.027 207.138 194.68 206.094 194.993 205.011C195.476 203.684 196.357 203.266 197.423 203.262C198.665 203.364 199.379 204.035 199.57 205.27C198.729 204.858 197.906 204.64 197.177 205.777C196.776 206.624 197.004 207.397 197.861 208.088C199.25 208.551 200.227 208.003 200.788 206.444C201.295 204.875 200.809 203.572 199.645 202.456C198.198 201.418 196.582 201.009 194.588 201.986C192.423 203.303 191.46 204.868 191.049 206.543C192.349 205.988 193.393 206.128 194.053 207.278C193.039 207.23 192.052 207.55 191.137 208.676C190.661 209.316 190.344 210.089 190.188 210.994C189.874 213.199 189.303 215.214 188.472 217.045C187.227 219.185 185.413 220.757 182.381 220.073C181.517 219.76 180.764 219.342 180.166 218.797C180.305 219.58 180.268 220.407 180.023 221.309C179.471 222.969 178.175 224.242 176.085 225.127C173.431 226.192 170.93 225.828 168.493 224.821C166.414 223.956 164.804 224.099 163.885 225.712C163.113 224.926 163.249 224.086 164.294 223.187C162.844 222.459 161.357 221.867 159.611 222.258C158.018 222.425 156.844 223.262 156.279 225.079C156.089 226.485 156.432 227.768 157.94 228.778C159.301 229.684 160.748 229.544 161.289 227.931C161.37 227.54 161.36 227.131 160.724 226.604C159.567 225.879 158.927 226.631 158.631 227.785C157.913 226.982 157.566 226.093 158.553 224.892C159.305 224.174 160.206 223.939 161.261 224.191C162.926 224.967 163.433 226.233 163.147 227.839C165.393 225.637 167.727 225.62 170.137 227.417ZM34.8407 194.21L33.6326 192.512L36.6715 190.348L31.9208 190.113L30.4779 188.084L36.6239 188.36L38.3424 183.613L37.0493 181.823L39.8806 179.808L41.0002 181.38L39.6866 182.32L40.517 183.487L38.5432 189.014L42.4636 186.22L43.6716 187.914L34.8407 194.21ZM26.3262 181.237L25.3053 179.427L32.6865 170.457L33.7449 172.325L32.2169 174.159L34.4051 178.028L36.777 177.681L37.8354 179.553L26.3262 181.237ZM28.3238 178.91L32.2952 178.352L30.8523 175.799L28.3238 178.91ZM28.773 168.711C29.2426 167.897 29.3243 167.156 29.0214 166.485C28.8206 166.043 28.5314 165.736 28.157 165.577C27.7793 165.42 27.3811 165.43 26.966 165.621C26.5542 165.805 26.2751 166.094 26.1288 166.482C25.9791 166.873 26.0914 167.489 26.4725 168.33L26.6597 168.738L24.9786 169.497L24.7948 169.092C24.5702 168.595 24.2877 168.268 23.9406 168.112C23.5969 167.959 23.2328 167.969 22.8482 168.142C22.4943 168.302 22.2629 168.537 22.1574 168.847C22.0451 169.153 22.0723 169.483 22.2323 169.837C22.4229 170.259 22.8278 170.596 23.4404 170.851L22.7053 172.519C21.9022 172.165 21.3543 171.814 21.0684 171.464C20.7792 171.11 20.5648 170.766 20.4116 170.429C20.0475 169.623 19.9726 168.84 20.1972 168.078C20.4218 167.316 20.9289 166.754 21.7252 166.397C22.0791 166.233 22.4535 166.141 22.8414 166.114C23.2362 166.087 23.7466 166.267 24.3796 166.666C24.3694 165.27 24.9888 164.29 26.2377 163.729C27.1565 163.313 28.0311 163.286 28.8717 163.65C29.7088 164.015 30.3452 164.685 30.7842 165.651C31.0599 166.261 31.196 166.86 31.1926 167.445C31.1892 168.027 30.951 168.772 30.4711 169.674L28.773 168.711ZM16.7601 159.468L16.1816 157.47L25.4414 150.45L26.0369 152.512L24.1278 153.941L25.3597 158.216L27.7487 158.427L28.3442 160.489L16.7601 159.468ZM19.241 157.664L23.2328 158.039L22.4194 155.224L19.241 157.664ZM14.0105 149.796L13.6633 147.741L17.3387 147.118L13.1665 144.838L12.7479 142.385L18.1588 145.308L21.7763 141.779L21.3917 139.608L24.8152 139.026L25.1419 140.931L23.5493 141.2L23.7909 142.613L19.6051 146.73L24.3524 145.92L24.7029 147.976L14.0105 149.796ZM17.6551 128.299L17.6347 127.105L19.3737 127.074L19.3941 128.272L22.3514 128.218L22.3888 130.304L19.4281 130.355L19.452 131.549L17.713 131.58L17.6926 130.385L11.6011 133.68L11.5602 131.457L15.4193 129.368L11.4922 127.425L11.4547 125.237L17.6483 128.303L17.6551 128.299ZM22.7223 115.446L14.5686 117.845L22.2629 121.49L22.0996 123.675L11.6011 118.675L11.7576 116.589L22.8891 113.247L22.7223 115.446ZM12.3429 110.205L13.3537 104.294L15.3615 104.638L15.028 106.588L23.7092 108.068L23.3587 110.137L14.6775 108.66L14.3542 110.549L12.3429 110.205ZM13.6225 102.371L14.9565 96.5248L16.9473 96.9774L16.5049 98.9069L25.0909 100.864L24.6246 102.912L16.0387 100.956L15.6133 102.824L13.6225 102.371ZM18.5944 85.1993L19.2614 83.2562L29.5183 86.7784L28.8479 88.7215L18.5944 85.1993ZM26.1594 96.552L15.9026 93.0264L16.5696 91.0833L20.4423 92.4139L20.5886 91.9885C20.871 91.1717 21.1943 90.5286 21.5721 90.0521C21.9464 89.5757 22.4637 89.2286 23.1239 89.0142C23.7875 88.7998 24.4919 88.8202 25.2372 89.0754C25.9382 89.3171 26.4759 89.6914 26.8434 90.1985C27.2178 90.7055 27.4288 91.216 27.4764 91.7367C27.5275 92.2505 27.4152 92.9005 27.1463 93.6798L26.1594 96.552ZM22.1846 93.0128L24.9718 93.9691L25.1385 93.4824C25.4176 92.6691 25.5026 92.094 25.4005 91.7503C25.2916 91.4065 24.9956 91.1479 24.5157 90.9846C23.5425 90.6511 22.8108 91.1922 22.3242 92.6078L22.1846 93.0128ZM21.1569 78.594L22.12 76.7461L25.4312 78.4715L23.4778 74.1326L24.6314 71.9274L27.1769 77.5254L32.1897 76.8993L33.1936 74.9391L36.2768 76.5419L35.3818 78.2571L33.9491 77.5084L33.2889 78.7812L27.4696 79.5332L31.7371 81.7554L30.7774 83.6033L21.1569 78.594ZM29.2766 63.6783L30.4813 61.9802L33.5271 64.1343L32.1863 59.5742L33.6258 57.5426L35.3852 63.4367L40.4387 63.4979L41.7013 61.6909L44.536 63.6987L43.4198 65.2744L42.0994 64.3419L41.2725 65.5092L35.4022 65.4649L39.3327 68.2486L38.128 69.9468L29.2766 63.6783ZM41.851 47.6328L43.1918 46.0776L51.4034 53.1628L50.0592 54.718L41.851 47.6328ZM44.6551 60.9831L36.4401 53.9013L37.7809 52.3461L40.8845 55.0209L41.1772 54.6772C41.7421 54.0272 42.2832 53.5474 42.8073 53.2445C43.3347 52.9416 43.9439 52.8157 44.6381 52.8599C45.3323 52.911 45.9789 53.19 46.5745 53.7039C47.136 54.1871 47.4967 54.735 47.6498 55.3442C47.8064 55.9533 47.8132 56.5046 47.6669 57.0049C47.5205 57.5017 47.1734 58.0632 46.6357 58.6894L44.6551 60.9831ZM42.2764 56.2222L44.5088 58.1483L44.8457 57.757C45.4072 57.107 45.6999 56.6033 45.7305 56.246C45.7577 55.8887 45.5808 55.5416 45.1928 55.2047C44.4135 54.5308 43.5355 54.7657 42.5588 55.8955L42.2764 56.2222ZM52.312 48.2045C53.2241 48.4257 53.9557 48.2964 54.5138 47.8166C54.8848 47.4967 55.0924 47.136 55.14 46.7276C55.1876 46.3226 55.0651 45.9449 54.7657 45.5978C54.4696 45.2575 54.1157 45.0703 53.7005 45.0397C53.2853 45.0056 52.7272 45.2915 52.0228 45.8938L51.6859 46.1831L50.4846 44.7878L50.8215 44.4986C51.2333 44.1413 51.4681 43.7771 51.5191 43.4028C51.5668 43.0285 51.4545 42.6814 51.1788 42.3615C50.927 42.0654 50.6377 41.9123 50.311 41.8952C49.9877 41.8782 49.6781 41.9973 49.382 42.2492C49.0315 42.552 48.8205 43.0353 48.749 43.6955L46.942 43.4641C47.0543 42.5895 47.2347 41.9667 47.4933 41.5924C47.7485 41.218 48.0174 40.9118 48.2998 40.6701C48.9702 40.0916 49.6985 39.8023 50.4948 39.7989C51.2877 39.7989 51.9683 40.129 52.5401 40.7926C52.7919 41.0853 52.9893 41.4188 53.1254 41.7829C53.2649 42.1539 53.2309 42.695 53.0301 43.413C54.3675 43.008 55.4803 43.3279 56.3719 44.3625C57.0287 45.1316 57.3044 45.9619 57.1921 46.8705C57.0763 47.7757 56.6169 48.5755 55.8138 49.2697C55.3033 49.7053 54.7691 50.0082 54.2076 50.1681C53.646 50.3281 52.8667 50.311 51.8662 50.1035L52.312 48.2045ZM57.2057 33.8504L58.9038 32.6423L66.9316 37.8626L67.9117 37.165L69.974 40.0542L68.3473 41.2146L67.4081 39.8976L61.3098 44.2468L62.249 45.5603L60.6258 46.7208L58.5635 43.8282L59.5436 43.1306L57.2057 33.8504ZM59.7239 35.5587L61.303 41.8748L65.1825 39.1081L59.7239 35.5587ZM68.6468 26.5065L70.4538 25.4822L79.4243 32.8703L77.556 33.9252L75.7218 32.3973L71.8525 34.5854L72.1996 36.9574L70.3279 38.0157L68.6468 26.5065ZM70.9711 28.5041L71.5292 32.4755L74.0815 31.0326L70.9711 28.5041ZM77.3212 21.9192L79.3188 21.0174C80.3976 20.5273 81.2212 20.2755 81.7895 20.2585C82.3544 20.2449 82.8784 20.3946 83.3583 20.7145C83.8347 21.0378 84.2125 21.5108 84.4949 22.1336C84.808 22.8244 84.8829 23.4778 84.7263 24.1006C84.5732 24.7199 84.2261 25.2576 83.685 25.717C83.3685 25.9893 82.7287 26.3364 81.7656 26.772L83.6578 30.9578L81.7861 31.8017L77.3212 21.9192ZM80.9387 24.9411L81.5444 24.6689C82.0175 24.4545 82.3306 24.2707 82.4837 24.121C82.6402 23.9678 82.7355 23.7909 82.773 23.5867C82.8104 23.3859 82.7764 23.1715 82.6743 22.9469C82.5041 22.5658 82.2251 22.3548 81.8507 22.314C81.5751 22.2799 81.1429 22.399 80.5542 22.6645L80.0199 22.9061L80.9387 24.9411ZM91.4644 16.5628L98.9648 14.395L101.977 24.8118L99.9755 25.3903L97.5015 16.8316L94.0167 17.8389L96.4908 26.3976L94.4727 26.983L91.4644 16.5628ZM103.688 13.551L109.525 12.5573L109.865 14.5515L106.053 15.2015L106.38 17.1209L110.195 16.4709L110.528 18.4379L106.717 19.0878L107.193 21.9022L111.008 21.2522L111.349 23.2464L105.512 24.2435L103.688 13.551ZM116.906 11.7644L118.988 11.6079L123.157 20.2313L124.355 20.1394L124.624 23.6786L122.633 23.8317L122.514 22.2187L115.044 22.7836L115.167 24.3966L113.176 24.5464L112.911 21.0072L114.112 20.9153L116.906 11.7644ZM118.182 14.5311L116.266 20.7519L121.013 20.3912L118.182 14.5311ZM131.005 11.567L133.077 11.7236L136.419 22.855L134.278 22.6917L133.605 20.398L129.17 20.0611L128.139 22.2255L125.995 22.0621L131.005 11.567ZM131.825 14.5209L130.079 18.1316L133.002 18.3528L131.825 14.5209ZM140.829 12.605L146.145 13.5102L145.805 15.5078L142.514 14.9463L141.03 23.6412L139.009 23.2974L140.829 12.605ZM154.996 15.239C156.47 15.6643 157.583 16.5662 158.335 17.9376C159.087 19.309 159.24 20.7656 158.798 22.2969C158.359 23.8181 157.464 24.9547 156.113 25.7034C154.765 26.4521 153.342 26.6154 151.849 26.1832C150.283 25.7306 149.143 24.8152 148.422 23.4336C147.7 22.0519 147.554 20.6192 147.983 19.1321C148.272 18.1384 148.779 17.291 149.5 16.5934C150.222 15.8992 151.076 15.4295 152.06 15.1811C153.046 14.9361 154.023 14.9565 154.996 15.239ZM154.411 17.1753C153.451 16.8997 152.546 16.9984 151.699 17.4816C150.848 17.9614 150.276 18.7169 149.973 19.7514C149.643 20.9051 149.79 21.9362 150.423 22.8448C150.909 23.5527 151.569 24.0257 152.403 24.2673C153.342 24.5396 154.238 24.4273 155.095 23.9406C155.953 23.4506 156.524 22.7121 156.81 21.715C157.099 20.7213 157.011 19.7889 156.545 18.9075C156.079 18.0295 155.367 17.451 154.411 17.1753ZM163.923 18.2473L168.952 20.187L168.224 22.0757L165.11 20.8745L161.935 29.1031L160.019 28.3646L163.923 18.2473ZM179.533 25.3971L174.523 35.0176L172.703 34.0682L175.837 28.0447L169.075 32.1795L167.503 31.3627L172.512 21.7422L174.333 22.6917L171.093 28.9091L178.015 24.6076L179.533 25.3971ZM183.293 27.5887L185.056 28.7015L183.051 31.8732L187.537 30.2703L189.64 31.6009L183.851 33.6666L184.154 40.9628L182.081 39.6526L181.84 33.7857L179.257 37.866L177.498 36.7532L183.293 27.5887ZM195.432 35.9535L197.065 37.2364L193.662 48.3441L191.971 47.0203L192.685 44.7402L189.184 41.9973L187.125 43.2224L185.433 41.8986L195.432 35.9535ZM194.472 38.8631L191.011 40.8947L193.322 42.7052L194.472 38.8631ZM200.332 55.174L203.97 47.4933L196.126 50.8079L194.608 49.2323L205.324 44.7232L206.778 46.2342L201.864 56.7633L200.332 55.174ZM217 58.3185L218.27 59.9383L209.731 66.6254L208.465 65.0089L217 58.3185ZM203.357 58.492L211.896 51.805L213.162 53.4214L209.939 55.9465L210.218 56.3004C210.749 56.9777 211.113 57.6038 211.307 58.1755C211.504 58.7507 211.511 59.3734 211.334 60.0472C211.154 60.7176 210.752 61.2962 210.133 61.7828C209.548 62.2388 208.942 62.4872 208.312 62.5213C207.686 62.5587 207.142 62.4566 206.682 62.2184C206.223 61.9768 205.74 61.531 205.233 60.881L203.357 58.492ZM208.493 57.0798L206.172 58.897L206.488 59.3054C207.019 59.9826 207.455 60.3637 207.802 60.4658C208.149 60.5611 208.523 60.4556 208.925 60.1391C209.735 59.5027 209.68 58.5975 208.755 57.4201L208.493 57.0798ZM221.023 64.3113L222.051 66.1251L218.801 67.9594L223.5 68.6876L224.725 70.8554L218.644 69.94L216.439 74.4865L217.535 76.3956L214.509 78.1073L213.56 76.4262L214.965 75.6299L214.261 74.3844L216.8 69.0926L212.61 71.4611L211.583 69.6473L221.023 64.3113ZM222.347 85.0326L228.683 78.3149L229.551 80.4759L224.889 85.1177L231.297 84.7978L232.093 86.7682L223.807 86.9962C222.394 87.0336 221.37 86.86 220.734 86.4891C220.101 86.1182 219.658 85.6247 219.41 85.0122C219.008 84.0151 219.127 82.9023 219.764 81.6704L221.533 82.419C221.152 83.1541 221.06 83.7667 221.254 84.2567C221.343 84.4711 221.469 84.6344 221.629 84.7331C221.792 84.8318 222.027 84.9305 222.347 85.0326ZM233.121 90.1338L233.703 92.1484L229.769 93.285L230.776 96.7698L234.71 95.6332L235.289 97.6342L224.868 100.646L224.29 98.6449L228.86 97.3211L227.856 93.8398L223.286 95.1601L222.701 93.1421L233.121 90.1338ZM237.555 110.028L226.866 111.849L226.522 109.827L233.213 108.687L225.835 105.798L225.535 104.049L236.228 102.228L236.571 104.25L229.66 105.431L237.269 108.344L237.555 110.028ZM227.284 115.238L238.099 114.418L238.229 116.126C238.304 117.117 238.297 117.845 238.205 118.315C238.079 118.978 237.8 119.519 237.364 119.938C236.929 120.357 236.391 120.595 235.758 120.639C235.346 120.673 234.969 120.612 234.618 120.465C234.268 120.319 233.931 120.057 233.607 119.686C233.349 120.367 233.002 120.874 232.559 121.214C232.12 121.551 231.583 121.745 230.95 121.793C230.344 121.84 229.779 121.721 229.255 121.449C228.734 121.17 228.329 120.792 228.047 120.312C227.758 119.832 227.584 119.159 227.516 118.284L227.284 115.238ZM236.296 116.617L234.009 116.79L234.043 117.249C234.084 117.76 234.217 118.134 234.448 118.369C234.679 118.601 234.975 118.703 235.34 118.672C235.68 118.648 235.938 118.509 236.122 118.257C236.303 118.008 236.374 117.641 236.337 117.158L236.296 116.617ZM232.171 116.93L229.401 117.141L229.439 117.661C229.503 118.529 229.656 119.104 229.895 119.39C230.136 119.676 230.46 119.802 230.871 119.771C231.334 119.734 231.691 119.53 231.933 119.155C232.175 118.784 232.267 118.185 232.202 117.362L232.171 116.93ZM238.566 125.284L238.46 131.202L236.435 131.168L236.503 127.302L234.557 127.268L234.485 131.131L232.495 131.097L232.563 127.231L229.711 127.18L229.639 131.046L227.615 131.012L227.72 125.09L238.566 125.284ZM238.273 135.262L237.98 137.433C237.82 138.607 237.599 139.441 237.313 139.931C237.027 140.418 236.619 140.782 236.095 141.017C235.571 141.251 234.969 141.323 234.288 141.231C233.539 141.132 232.944 140.85 232.498 140.387C232.056 139.928 231.78 139.349 231.678 138.645C231.617 138.236 231.661 137.505 231.804 136.46L227.25 135.847L227.526 133.812L238.273 135.262ZM233.791 136.729L233.703 137.385C233.631 137.903 233.624 138.263 233.669 138.474C233.716 138.689 233.815 138.859 233.968 139.002C234.121 139.138 234.319 139.223 234.56 139.257C234.979 139.315 235.306 139.189 235.537 138.893C235.71 138.679 235.843 138.246 235.928 137.607L236.007 137.025L233.791 136.729ZM232.804 155.027L231.783 153.312C233.015 152.58 233.764 151.621 234.04 150.419C234.268 149.409 234.118 148.476 233.587 147.625C233.056 146.775 232.284 146.233 231.273 146.005C230.568 145.842 229.908 145.856 229.292 146.036C228.673 146.22 228.145 146.557 227.71 147.043C227.267 147.537 226.971 148.122 226.815 148.813C226.682 149.395 226.665 149.953 226.774 150.487C226.883 151.025 227.159 151.648 227.601 152.356L225.862 153.4C225.277 152.444 224.913 151.583 224.776 150.824C224.637 150.062 224.674 149.232 224.875 148.343C225.249 146.696 226.08 145.468 227.363 144.658C228.642 143.845 230.099 143.63 231.725 144.001C232.78 144.243 233.662 144.692 234.373 145.359C235.084 146.019 235.585 146.856 235.881 147.86C236.177 148.861 236.207 149.875 235.976 150.902C235.775 151.774 235.401 152.57 234.846 153.298C234.295 154.02 233.614 154.598 232.804 155.027ZM230.796 166.747L220.58 163.106L221.271 161.173L227.666 163.453L222.643 157.324L223.238 155.653L233.454 159.291L232.763 161.227L226.158 158.872L231.372 165.134L230.796 166.747ZM229.405 169.902L226.91 175.357L225.055 174.506L225.879 172.706L217.872 169.041L218.746 167.132L226.754 170.797L227.55 169.054L229.405 169.902ZM225.338 178.338L222.401 183.48L220.642 182.476L222.561 179.117L220.87 178.151L218.95 181.51L217.222 180.519L219.138 177.161L216.66 175.745L214.741 179.104L212.981 178.096L215.922 172.958L225.338 178.338ZM221.179 185.525L217.974 190.593L216.248 189.504L217.307 187.829L209.864 183.123L210.987 181.346L218.43 186.053L219.454 184.433L221.179 185.525ZM215.99 193.158L214.724 194.775L206.189 188.084L207.455 186.468L215.99 193.158ZM138.039 225.12H140.094V232.113H141.061V234.016H140.094V236.238H138.07V234.016H133.343V232.11L138.039 225.12ZM138.07 232.113V228.472L135.595 232.113H138.07ZM129.579 225.12H131.634V232.113H132.601V234.016H131.634V236.238H129.613V234.016H124.886V232.11L129.579 225.12ZM129.613 232.113V228.472L127.135 232.113H129.613ZM120.19 236.51L118.434 235.639L120.319 231.947C119.4 231.947 118.621 231.617 117.978 230.96C117.338 230.303 117.015 229.486 117.015 228.51C117.015 227.56 117.345 226.76 118.005 226.104C118.669 225.447 119.468 225.12 120.404 225.12C121.381 225.12 122.198 225.46 122.851 226.141C123.501 226.818 123.828 227.601 123.828 228.486C123.828 228.823 123.777 229.156 123.675 229.493C123.576 229.827 123.341 230.351 122.977 231.052L120.19 236.51ZM120.445 230C120.83 230 121.149 229.857 121.411 229.578C121.673 229.299 121.803 228.955 121.803 228.54C121.803 228.118 121.667 227.768 121.391 227.482C121.119 227.196 120.802 227.053 120.438 227.053C120.057 227.053 119.727 227.196 119.451 227.475C119.176 227.758 119.04 228.111 119.04 228.533C119.04 228.952 119.172 229.299 119.441 229.578C119.71 229.857 120.043 230 120.445 230Z" fill="#FEFEFE"/>
</g>
<defs>
<clipPath id="clip0_2372_1043">
<rect width="250" height="250" fill="white"/>
</clipPath>
</defs>
</svg>
